<?xml version="1.0" encoding="utf-8"?>
<!DOCTYPE svg PUBLIC "-//W3C//DTD SVG 20010904//EN" "http://www.w3.org/TR/2001/REC-SVG-20010904/DTD/svg10.dtd">
<svg version="1.0" xmlns="http://www.w3.org/2000/svg" width="152px" height="152px" viewBox="0 0 152 152" preserveAspectRatio="xMidYMid meet">
 <g fill="#fffffe" fill-rule="evenodd">
  <path d="M0 76 L0 0 76 0 L152 0 152 76 L152 152 76 152 L0 152 0 76 M59.2 148.1 C47 144.9 30.3 136.1 33.1 134.3 C34.9 133.2 37 129.4 37 127.4 C37 126.1 36.3 125.9 34.4 126.4 C31 127.2 27.7 126.1 28.3 124.4 C28.6 123.7 28.3 122.9 27.6 122.6 C25.2 121.8 28.7 119.8 32.1 120.1 C34.7 120.4 35.5 121 35.8 122.7 C35.9 123.9 36.2 125 36.4 125 C36.6 125 38.7 123.8 41.1 122.5 C43.5 121.1 46.1 120 47 120 C47.8 120 47.1 120.6 45.5 121.4 C41.1 123.3 38.5 126.6 38.4 130.5 C38.3 133.6 38.6 134 41 134 C42.5 134 44.3 133.3 44.9 132.5 C45.6 131.6 46.8 131 47.6 131 C48.4 131 50.5 130.2 52.2 129.2 C54 128.3 56.5 127.4 57.7 127.3 C59.8 127.1 59.8 127.2 58.3 129.5 C57.5 130.8 54.3 133.5 51.4 135.5 C48.4 137.4 46 139.5 46 140 C46 140.5 47.9 141 50.2 141 C53.9 141 55.1 140.4 58.1 137.2 C60.1 135.1 62.9 131.7 64.4 129.6 C65.8 127.4 67 126.1 67 126.7 C67 127.2 64.7 130.6 62 134.3 C59.2 137.9 57 141.4 57 142 C57 142.6 58.7 142.9 61.7 142.8 C65.8 142.5 66.7 142 68.7 139 C69.9 137.1 71.9 132.9 72.9 129.5 C74 126.2 74.9 124.3 74.9 125.3 C75 127.7 73.2 134.4 71.3 138.6 C69.5 142.9 69.6 144.7 71.9 145.9 C74.7 147.4 80.2 147.2 82.5 145.5 C84.4 144.1 84.4 144 82.3 138 C80.2 131.8 80.7 129.5 83 135 C84.7 139.2 89.5 143 93.1 143 C97.9 143 97.6 140.5 91.7 132.7 C88.6 128.7 85.9 124.5 85.5 123.2 C84.6 120.4 86.4 114.1 89 111 L91.1 108.5 89 112.7 C87.9 115 87 118.1 87 119.6 C87 123.8 90.4 130 96.1 135.8 C100.4 140.2 101.7 141 104.3 140.8 C108.3 140.4 108.7 138.7 105.4 135.8 C95.4 127.1 92 123 92 119.6 C92 112.3 104.3 103.8 117.9 101.8 C126.3 100.5 132 101.6 133.5 104.7 C134.1 105.9 135.4 107.8 136.4 108.9 C137.5 110.1 138.1 111.1 137.9 111.4 C137.6 111.6 134.8 112.1 131.6 112.5 L125.7 113.2 126.3 110.6 C127.1 107.5 127.2 107.6 123 109.1 C120.4 110 118.8 109.9 114.5 108.4 L109.3 106.6 103.5 109.3 L97.8 111.9 99.9 114.7 C102.4 117.8 105.6 119.9 108.2 119.9 C109.2 119.9 111.8 120.9 114 122 L118 124 118 122 C118 120.3 118.6 120 122.3 120 C127.2 120 128.4 120.7 126.8 122.6 C126.2 123.3 126 124 126.5 124 C126.9 124 126.7 124.6 126 125.4 C125.2 126.3 123.7 126.6 121.4 126.2 C117.4 125.6 117.3 125.8 120 130.7 L122 134.5 119.2 136.7 C114.7 140.5 102.9 145.7 94.2 147.9 C83.5 150.6 68.6 150.7 59.2 148.1 M110.8 132.5 C110.2 131.6 109 131 108.2 131 C107.4 131 105.6 130.1 104.1 129.1 C102.6 128 100.3 127 99 126.8 C96.6 126.4 93.3 121.8 93.4 119 C93.5 117 98.5 117.3 100.8 119.3 C101.7 120.1 104.4 121.1 106.8 121.4 C112.4 122.4 117.2 126.5 117.6 130.8 C117.9 133.7 117.7 134 115 134 C113.3 134 111.4 133.3 110.8 132.5 M79.1 122.7 C79.1 120.9 79.4 120.2 79.6 121.2 C79.8 122.2 79.7 123.6 79.5 124.5 C79.2 125.3 79 124.5 79.1 122.7 M61.8 123.2 C61.8 122.8 61.8 121.2 61.9 119.7 C62.1 117.4 61.7 117 59.6 117 C58.3 117 56.6 117.6 56 118.5 C55.3 119.3 53.5 119.9 52.1 119.9 L49.5 119.9 52.5 118.1 C59.4 113.9 59.2 111.3 51.9 108.9 C48.7 107.9 46.6 107.8 41.8 108.7 C36.8 109.7 35.1 109.6 32.3 108.4 L28.8 107 29.4 109.8 C30 112.3 29.7 112.8 27.5 113.3 C25.9 113.7 23.7 113.4 21.8 112.4 C17.9 110.4 17.4 111 19.4 114.9 C20.6 117.2 20.8 118.8 20.2 120.7 C19.4 123.2 19.3 123.2 15.5 117.9 C13.4 114.9 10.6 110.2 9.3 107.2 C7.2 102.4 7.1 102 8.9 103.1 C9.9 103.8 11.1 105.8 11.4 107.5 C12.1 111.1 16 115.5 16 112.6 C15.9 111.7 17.1 110.3 18.4 109.4 C20 108.4 20.9 106.8 20.9 105.3 C21 103.9 21.4 103.1 21.9 103.4 C22.4 103.7 23 103.4 23.2 102.7 C23.5 101.8 26 101.5 31.5 101.6 C38.1 101.7 40.7 102.2 47 104.9 C59.7 110.4 65.1 116 63 121.5 C62.4 122.8 61.9 123.6 61.8 123.2 M134.4 119.5 C133.6 117.6 136.5 113.3 139 112.6 C141.6 112 141.5 112.7 138.5 117.2 C135.7 121.3 135.2 121.6 134.4 119.5 M80 116 C80 114.2 82.3 110 83.2 110 C83.8 110 83.7 110.6 83.1 111.5 C82.5 112.3 81.5 113.9 81 115 C80.4 116.1 80 116.5 80 116 M73 113.4 C71.7 110.3 71.7 110 72.8 110 C73.8 110 75.2 114.7 74.5 115.5 C74.2 115.7 73.5 114.8 73 113.4 M66.3 104.6 C64.9 103.3 61.7 101.2 59.3 100 C54.4 97.6 52.6 94.3 53.6 90.3 C54.1 88.2 53.9 87.8 52.4 88.1 C50.8 88.4 49.7 89.9 47.3 94.8 C47.2 95 46.2 94.6 45 94 C43.4 93.1 42.9 92.1 43.1 89.7 C43.4 87.1 44 86.4 46.7 85.7 C51.2 84.6 52.4 81.6 51.5 73.5 C51.1 69.9 50.6 67 50.4 67 C49.6 67 43.1 73.7 41.5 76.2 C40.5 77.8 40 79.9 40.3 81.2 C40.6 82.6 40.1 84.4 39 86 C37.1 88.4 37 88.4 35.5 86.5 C34.7 85.4 34 83.2 34 81.8 C34 80.3 33.5 78 33.1 76.8 C32 74.1 24.1 66 22.5 66 C21.2 65.9 21.7 78 23 81.7 C23.5 82.9 25.7 85 27.9 86.4 C30.1 87.8 32 89.3 32 89.7 C32 90.2 33.8 92 36.1 93.7 C40.7 97.2 40.6 97.7 35.7 95.6 C27.6 92.2 17 78.2 17 70.9 C16.9 62.9 26 55.7 30 60.5 C31.1 61.8 31.4 61.8 33.1 60.3 C34.7 58.9 34.6 59.2 32.7 62.7 L30.5 66.7 33.2 70.6 C34.7 72.8 36 75.3 36 76.3 C36 80.9 41.5 74.8 43.2 68.3 C44.2 64.5 44.6 64.1 48.3 63.6 C50.5 63.3 53.4 62.2 54.9 61.2 C57.6 59.1 58.9 56 56.9 56 C56.3 55.9 54.2 54.6 52.3 52.9 C50.4 51.3 48.6 50 48.1 50 C47.7 50 47.4 47.3 47.4 44.1 C47.4 40.1 46.8 37.4 45.6 35.5 L43.7 32.6 42.4 35.8 C41.6 37.5 39.9 39.4 38.5 39.9 C36.4 40.7 35.6 40.4 32.8 37.7 L29.6 34.5 28.6 38 C27.5 42.2 27.3 46.9 28.2 49 C28.7 50 27.5 51.1 23.7 53 C20.2 54.6 17.5 56.9 15.5 59.8 C12.8 63.6 12.5 65 12.5 70.8 C12.6 74.7 13.2 78.8 14.1 80.6 C15.6 83.6 15.6 83.8 12.8 86.4 C11.2 87.9 10 90.2 10 91.5 C10 94.4 6.2 96.9 4.9 94.9 C4.5 94.2 3.6 89.7 2.9 85 C1.9 78.3 1.9 74.5 2.9 67.1 C5.3 48.8 11.3 36.5 24.4 23.4 C32.1 15.6 34.9 13.6 43 9.7 C48.2 7.1 53.6 4.7 54.9 4.4 C57.1 3.8 57 4.1 53.4 7.8 C48.3 13.2 46.1 18.9 46 26.7 C45.9 33.7 48.1 40.2 51.6 43.9 C53.8 46.3 53.9 46.3 55.9 44.5 C57.8 42.7 57.8 42.6 56.1 40.1 C47.1 27 53 10.3 68.6 4.7 C75.9 2 82.1 2.4 89.5 6 C96.8 9.4 101.1 14.6 103.1 22.3 C104.6 27.7 103.3 34.3 99.8 39.1 C96.1 44.3 100.6 48.6 104.3 43.4 C112.1 33 111.6 19.7 103.2 9.2 L99.8 4.9 105 7 C112.1 9.8 113.3 10.5 121.3 16.3 C130.3 22.9 138.1 32.4 143.4 43.5 C148.7 54.3 150.9 64 150.9 75.3 C151 82.3 149.5 93.5 148.5 94.7 C147.6 95.7 145 93.3 144.5 91 C144.1 89.4 143 87.4 141.9 86.4 C140.1 84.8 139.9 84.8 137.9 87.1 C136.8 88.4 135.2 90.9 134.4 92.7 C133.6 94.5 132.4 96 131.7 96 C131 96 129.3 96.2 128 96.6 C125.9 97.1 126.4 96.3 130.6 92.6 C133.4 90.1 137.2 85.6 139.1 82.8 C142.2 78 142.5 76.8 142.5 69.8 C142.5 60.7 141.7 59.7 131.7 53.8 C125.5 50.2 125 49.7 126.5 48.2 C127.6 47.1 127.9 45.8 127.4 44 C127 42.6 126.8 40 126.8 38.2 C126.8 36.2 126.3 34.9 125.5 35 C124 35 121 38.2 121 39.8 C121 41.2 119.9 41.3 116.6 40 C114.9 39.4 113.7 37.9 113.2 35.7 L112.3 32.5 110 36.8 C108.6 39.6 107.9 42.5 108.1 44.8 C108.4 48 107.9 49 104.3 52.2 C102.1 54.3 99.2 56 98 56 C96.2 55.9 96 56.2 97 58 C98.3 60.5 103.5 62.8 108.4 63.2 C111.8 63.4 111.9 63.6 111.9 67.1 C111.9 69.6 112.8 71.8 114.5 73.9 C117.4 77.3 119.9 77.9 120 75.2 C120 74.2 120.9 72.3 122 71 C124.3 68 124.4 66.3 122.6 62.8 C121.3 60.4 121.4 60.2 123 60.7 C123.9 60.9 125 60.6 125.4 60 C126.5 58.3 130.9 58.8 134 61 C135.6 62.1 137.4 64.7 138 66.8 C138.9 69.9 138.8 71.3 136.9 76.4 C135.7 79.7 133 84 131.1 86 C127.1 90.1 116 96.7 116 95 C116 94.4 116.3 94 116.8 94 C117.3 94 119.5 92.3 121.6 90.2 C123.7 88.1 126.6 85.8 128.1 85.1 C131.7 83.2 132.8 80.3 132.2 74.3 C131.9 71.1 132.1 69 132.8 68.5 C133.4 68.1 134 67.2 134 66.4 C134 64.4 131.5 65.7 127.1 70.1 C122 75.1 120.7 77.5 120.8 81.9 C120.8 84.4 120.2 86.3 119 87.4 C117.2 89 117 89 115.5 86.1 C114.7 84.4 114 81.5 114 79.6 C114 77.1 112.9 75.1 109.8 71.5 L105.6 66.7 104.2 70.6 C102 76.8 102.4 81 105.4 83.7 C106.9 84.9 108.7 86 109.4 86 C111.4 86 112.3 89.5 111 91.9 C109.7 94.2 107 94.7 107 92.6 C107 90.8 103.7 88 101.6 88 C100.2 88 100.1 88.3 101.2 89.9 C103.3 93.3 101 96.9 93.6 102.2 C86.9 107 83.7 108.1 88 104.2 C90.5 101.8 89.3 100.6 85.4 101.5 C83.5 102 82.2 101.6 80.6 100.1 L78.3 97.9 75.7 99.9 C74.2 101.1 71.6 102 69.4 102 L65.6 102 67.8 104 C69.9 106 70.5 107 69.5 107 C69.2 107 67.8 105.9 66.3 104.6 M59.4 96 C59.1 95.5 59.4 94.8 59.9 94.5 C60.4 94.2 60.6 93.3 60.4 92.6 C59.7 91 62.7 84 64 84 C64.5 84 65.3 83.9 65.7 83.8 C66.1 83.7 66.7 84.9 67 86.5 L67.6 89.5 68.8 86.6 C70.3 82.9 73.2 83.4 74 87.5 L74.6 90.5 75 87.5 C75.6 83.4 78.6 82.9 80.1 86.6 L81.3 89.5 81.7 87 C82 85.6 82.6 84.2 83.2 83.8 C84.9 82.8 87 84 87 86 C87 89 88.8 89.2 89.1 86.2 C89.8 80.2 94.6 84.8 95.5 92.4 L96 95.8 89 95.8 L82.1 95.9 81.7 92.7 C81.3 89.6 81.3 89.6 81.1 93.2 C81 96.7 80.7 97 78 97 C76.3 97 75 96.5 75 95.9 C75 95.3 74.5 95.1 74 95.4 C72.1 96.4 60 97 59.4 96 M56.8 79.1 C55.1 77.7 54.8 76.7 55.4 74.2 C56.2 70.7 60.1 67 63.1 67 C64.1 67 65 66.5 65 66 C65 65.4 64.1 65 63 65 C59.9 65 59.1 62.1 60 54 C61 45.1 63 42 68.9 40.1 C71.2 39.3 72.7 38.4 72.2 38.1 C70.9 37.3 69.6 28.7 70.3 26.3 C70.7 25.3 72.5 23.4 74.4 22.1 C78.1 19.6 79.8 19.9 83.2 23.7 C85.5 26.2 85.7 35.7 83.5 37.1 C83 37.5 84.6 38.7 87.2 39.8 C91.5 41.7 92 42.2 93.5 47.6 C94.7 51.5 95 55.4 94.7 60 C94.2 66.5 94.3 66.6 97 67.7 C99 68.4 100.1 69.8 100.7 72.1 C101.6 75.5 100.5 80 98.8 80 C98.3 80 89.2 80.2 78.5 80.5 C60.7 80.9 58.8 80.8 56.8 79.1 M22.8 95.1 C21.6 94.1 20.8 92.8 21.1 92.2 C21.3 91.6 22.9 92.4 24.7 94 C28.3 97.2 26.5 98.3 22.8 95.1 "/>
 </g>
 <g fill="#bf5b26" fill-rule="evenodd">
  <path d="M59.2 148.1 C47 144.9 30.3 136.1 33.1 134.3 C34.9 133.2 37 129.4 37 127.4 C37 126.1 36.3 125.9 34.4 126.4 C31 127.2 27.7 126.1 28.3 124.4 C28.6 123.7 28.3 122.9 27.6 122.6 C25.2 121.8 28.7 119.8 32.1 120.1 C34.7 120.4 35.5 121 35.8 122.7 C35.9 123.9 36.2 125 36.4 125 C36.6 125 38.7 123.8 41.1 122.5 C43.5 121.1 46.1 120 47 120 C47.8 120 47.1 120.6 45.5 121.4 C41.1 123.3 38.5 126.6 38.4 130.5 C38.3 133.6 38.6 134 41 134 C42.5 134 44.3 133.3 44.9 132.5 C45.6 131.6 46.8 131 47.6 131 C48.4 131 50.5 130.2 52.2 129.2 C54 128.3 56.5 127.4 57.7 127.3 C59.8 127.1 59.8 127.2 58.3 129.5 C57.5 130.8 54.3 133.5 51.4 135.5 C48.4 137.4 46 139.5 46 140 C46 140.5 47.9 141 50.2 141 C53.9 141 55.1 140.4 58.1 137.2 C60.1 135.1 62.9 131.7 64.4 129.6 C65.8 127.4 67 126.1 67 126.7 C67 127.2 64.7 130.6 62 134.3 C59.2 137.9 57 141.4 57 142 C57 142.6 58.7 142.9 61.7 142.8 C65.8 142.5 66.7 142 68.7 139 C69.9 137.1 71.9 132.9 72.9 129.5 C74 126.2 74.9 124.3 74.9 125.3 C75 127.7 73.2 134.4 71.3 138.6 C69.5 142.9 69.6 144.7 71.9 145.9 C74.7 147.4 80.2 147.2 82.5 145.5 C84.4 144.1 84.4 144 82.3 138 C80.2 131.8 80.7 129.5 83 135 C84.7 139.2 89.5 143 93.1 143 C97.9 143 97.6 140.5 91.7 132.7 C88.6 128.7 85.9 124.5 85.5 123.2 C84.6 120.4 86.4 114.1 89 111 L91.1 108.5 89 112.7 C87.9 115 87 118.1 87 119.6 C87 123.8 90.4 130 96.1 135.8 C100.4 140.2 101.7 141 104.3 140.8 C108.3 140.4 108.7 138.7 105.4 135.8 C95.4 127.1 92 123 92 119.6 C92 112.3 104.3 103.8 117.9 101.8 C126.3 100.5 132 101.6 133.5 104.7 C134.1 105.9 135.4 107.8 136.4 108.9 C137.5 110.1 138.1 111.1 137.9 111.4 C137.6 111.6 134.8 112.1 131.6 112.5 L125.7 113.2 126.3 110.6 C127.1 107.5 127.2 107.6 123 109.1 C120.4 110 118.8 109.9 114.5 108.4 L109.3 106.6 103.5 109.3 L97.8 111.9 99.9 114.7 C102.4 117.8 105.6 119.9 108.2 119.9 C109.2 119.9 111.8 120.9 114 122 L118 124 118 122 C118 120.3 118.6 120 122.3 120 C127.2 120 128.4 120.7 126.8 122.6 C126.2 123.3 126 124 126.5 124 C126.9 124 126.7 124.6 126 125.4 C125.2 126.3 123.7 126.6 121.4 126.2 C117.4 125.6 117.3 125.8 120 130.7 L122 134.5 119.2 136.7 C114.7 140.5 102.9 145.7 94.2 147.9 C83.5 150.6 68.6 150.7 59.2 148.1 M110.8 132.5 C110.2 131.6 109 131 108.2 131 C107.4 131 105.6 130.1 104.1 129.1 C102.6 128 100.3 127 99 126.8 C96.6 126.4 93.3 121.8 93.4 119 C93.5 117 98.5 117.3 100.8 119.3 C101.7 120.1 104.4 121.1 106.8 121.4 C112.4 122.4 117.2 126.5 117.6 130.8 C117.9 133.7 117.7 134 115 134 C113.3 134 111.4 133.3 110.8 132.5 "/>
  <path d="M79.1 122.7 C79.1 120.9 79.4 120.2 79.6 121.2 C79.8 122.2 79.7 123.6 79.5 124.5 C79.2 125.3 79 124.5 79.1 122.7 "/>
  <path d="M61.8 123.2 C61.8 122.8 61.8 121.2 61.9 119.7 C62.1 117.4 61.7 117 59.6 117 C58.3 117 56.6 117.6 56 118.5 C55.3 119.3 53.5 119.9 52.1 119.9 L49.5 119.9 52.5 118.1 C59.4 113.9 59.2 111.3 51.9 108.9 C48.7 107.9 46.6 107.8 41.8 108.7 C36.8 109.7 35.1 109.6 32.3 108.4 L28.8 107 29.4 109.8 C30 112.3 29.7 112.8 27.5 113.3 C25.9 113.7 23.7 113.4 21.8 112.4 C17.9 110.4 17.4 111 19.4 114.9 C20.6 117.2 20.8 118.8 20.2 120.7 C19.4 123.2 19.3 123.2 15.5 117.9 C13.4 114.9 10.6 110.2 9.3 107.2 C7.2 102.4 7.1 102 8.9 103.1 C9.9 103.8 11.1 105.8 11.4 107.5 C12.1 111.1 16 115.5 16 112.6 C15.9 111.7 17.1 110.3 18.4 109.4 C20 108.4 20.9 106.8 20.9 105.3 C21 103.9 21.4 103.1 21.9 103.4 C22.4 103.7 23 103.4 23.2 102.7 C23.5 101.8 26 101.5 31.5 101.6 C38.1 101.7 40.7 102.2 47 104.9 C59.7 110.4 65.1 116 63 121.5 C62.4 122.8 61.9 123.6 61.8 123.2 "/>
  <path d="M134.4 119.5 C133.6 117.6 136.5 113.3 139 112.6 C141.6 112 141.5 112.7 138.5 117.2 C135.7 121.3 135.2 121.6 134.4 119.5 "/>
  <path d="M80 116 C80 114.2 82.3 110 83.2 110 C83.8 110 83.7 110.6 83.1 111.5 C82.5 112.3 81.5 113.9 81 115 C80.4 116.1 80 116.5 80 116 "/>
  <path d="M73 113.4 C71.7 110.3 71.7 110 72.8 110 C73.8 110 75.2 114.7 74.5 115.5 C74.2 115.7 73.5 114.8 73 113.4 "/>
  <path d="M66.3 104.6 C64.9 103.3 61.7 101.2 59.3 100 C54.4 97.6 52.6 94.3 53.6 90.3 C54.1 88.2 53.9 87.8 52.4 88.1 C50.8 88.4 49.7 89.9 47.3 94.8 C47.2 95 46.2 94.6 45 94 C43.4 93.1 42.9 92.1 43.1 89.7 C43.4 87.1 44 86.4 46.7 85.7 C51.2 84.6 52.4 81.6 51.5 73.5 C51.1 69.9 50.6 67 50.4 67 C49.6 67 43.1 73.7 41.5 76.2 C40.5 77.8 40 79.9 40.3 81.2 C40.6 82.6 40.1 84.4 39 86 C37.1 88.4 37 88.4 35.5 86.5 C34.7 85.4 34 83.2 34 81.8 C34 80.3 33.5 78 33.1 76.8 C32 74.1 24.1 66 22.5 66 C21.2 65.9 21.7 78 23 81.7 C23.5 82.9 25.7 85 27.9 86.4 C30.1 87.8 32 89.3 32 89.7 C32 90.2 33.8 92 36.1 93.7 C40.7 97.2 40.6 97.7 35.7 95.6 C27.6 92.2 17 78.2 17 70.9 C16.9 62.9 26 55.7 30 60.5 C31.1 61.8 31.4 61.8 33.1 60.3 C34.7 58.9 34.6 59.2 32.7 62.7 L30.5 66.7 33.2 70.6 C34.7 72.8 36 75.3 36 76.3 C36 80.9 41.5 74.8 43.2 68.3 C44.2 64.5 44.6 64.1 48.3 63.6 C50.5 63.3 53.4 62.2 54.9 61.2 C57.6 59.1 58.9 56 56.9 56 C56.3 55.9 54.2 54.6 52.3 52.9 C50.4 51.3 48.6 50 48.1 50 C47.7 50 47.4 47.3 47.4 44.1 C47.4 40.1 46.8 37.4 45.6 35.5 L43.7 32.6 42.4 35.8 C41.6 37.5 39.9 39.4 38.5 39.9 C36.4 40.7 35.6 40.4 32.8 37.7 L29.6 34.5 28.6 38 C27.5 42.2 27.3 46.9 28.2 49 C28.7 50 27.5 51.1 23.7 53 C20.2 54.6 17.5 56.9 15.5 59.8 C12.8 63.6 12.5 65 12.5 70.8 C12.6 74.7 13.2 78.8 14.1 80.6 C15.6 83.6 15.6 83.8 12.8 86.4 C11.2 87.9 10 90.2 10 91.5 C10 94.4 6.2 96.9 4.9 94.9 C4.5 94.2 3.6 89.7 2.9 85 C1.9 78.3 1.9 74.5 2.9 67.1 C5.3 48.8 11.3 36.5 24.4 23.4 C32.1 15.6 34.9 13.6 43 9.7 C48.2 7.1 53.6 4.7 54.9 4.4 C57.1 3.8 57 4.1 53.4 7.8 C48.3 13.2 46.1 18.9 46 26.7 C45.9 33.7 48.1 40.2 51.6 43.9 C53.8 46.3 53.9 46.3 55.9 44.5 C57.8 42.7 57.8 42.6 56.1 40.1 C47.1 27 53 10.3 68.6 4.7 C75.9 2 82.1 2.4 89.5 6 C96.8 9.4 101.1 14.6 103.1 22.3 C104.6 27.7 103.3 34.3 99.8 39.1 C96.1 44.3 100.6 48.6 104.3 43.4 C112.1 33 111.6 19.7 103.2 9.2 L99.8 4.9 105 7 C112.1 9.8 113.3 10.5 121.3 16.3 C130.3 22.9 138.1 32.4 143.4 43.5 C148.7 54.3 150.9 64 150.9 75.3 C151 82.3 149.5 93.5 148.5 94.7 C147.6 95.7 145 93.3 144.5 91 C144.1 89.4 143 87.4 141.9 86.4 C140.1 84.8 139.9 84.8 137.9 87.1 C136.8 88.4 135.2 90.9 134.4 92.7 C133.6 94.5 132.4 96 131.7 96 C131 96 129.3 96.2 128 96.6 C125.9 97.1 126.4 96.3 130.6 92.6 C133.4 90.1 137.2 85.6 139.1 82.8 C142.2 78 142.5 76.8 142.5 69.8 C142.5 60.7 141.7 59.7 131.7 53.8 C125.5 50.2 125 49.7 126.5 48.2 C127.6 47.1 127.9 45.8 127.4 44 C127 42.6 126.8 40 126.8 38.2 C126.8 36.2 126.3 34.9 125.5 35 C124 35 121 38.2 121 39.8 C121 41.2 119.9 41.3 116.6 40 C114.9 39.4 113.7 37.9 113.2 35.7 L112.3 32.5 110 36.8 C108.6 39.6 107.9 42.5 108.1 44.8 C108.4 48 107.9 49 104.3 52.2 C102.1 54.3 99.2 56 98 56 C96.2 55.9 96 56.2 97 58 C98.3 60.5 103.5 62.8 108.4 63.2 C111.8 63.4 111.9 63.6 111.9 67.1 C111.9 69.6 112.8 71.8 114.5 73.9 C117.4 77.3 119.9 77.9 120 75.2 C120 74.2 120.9 72.3 122 71 C124.3 68 124.4 66.3 122.6 62.8 C121.3 60.4 121.4 60.2 123 60.7 C123.9 60.9 125 60.6 125.4 60 C126.5 58.3 130.9 58.8 134 61 C135.6 62.1 137.4 64.7 138 66.8 C138.9 69.9 138.8 71.3 136.9 76.4 C135.7 79.7 133 84 131.1 86 C127.1 90.1 116 96.7 116 95 C116 94.4 116.3 94 116.8 94 C117.3 94 119.5 92.3 121.6 90.2 C123.7 88.1 126.6 85.8 128.1 85.1 C131.7 83.2 132.8 80.3 132.2 74.3 C131.9 71.1 132.1 69 132.8 68.5 C133.4 68.1 134 67.2 134 66.4 C134 64.4 131.5 65.7 127.1 70.1 C122 75.1 120.7 77.5 120.8 81.9 C120.8 84.4 120.2 86.3 119 87.4 C117.2 89 117 89 115.5 86.1 C114.7 84.4 114 81.5 114 79.6 C114 77.1 112.9 75.1 109.8 71.5 L105.6 66.7 104.2 70.6 C102 76.8 102.4 81 105.4 83.7 C106.9 84.9 108.7 86 109.4 86 C111.4 86 112.3 89.5 111 91.9 C109.7 94.2 107 94.7 107 92.6 C107 90.8 103.7 88 101.6 88 C100.2 88 100.1 88.3 101.2 89.9 C103.3 93.3 101 96.9 93.6 102.2 C86.9 107 83.7 108.1 88 104.2 C90.5 101.8 89.3 100.6 85.4 101.5 C83.5 102 82.2 101.6 80.6 100.1 L78.3 97.9 75.7 99.9 C74.2 101.1 71.6 102 69.4 102 L65.6 102 67.8 104 C69.9 106 70.5 107 69.5 107 C69.2 107 67.8 105.9 66.3 104.6 M59.4 96 C59.1 95.5 59.4 94.8 59.9 94.5 C60.4 94.2 60.6 93.3 60.4 92.6 C59.7 91 62.7 84 64 84 C64.5 84 65.3 83.9 65.7 83.8 C66.1 83.7 66.7 84.9 67 86.5 L67.6 89.5 68.8 86.6 C70.3 82.9 73.2 83.4 74 87.5 L74.6 90.5 75 87.5 C75.6 83.4 78.6 82.9 80.1 86.6 L81.3 89.5 81.7 87 C82 85.6 82.6 84.2 83.2 83.8 C84.9 82.8 87 84 87 86 C87 89 88.8 89.2 89.1 86.2 C89.8 80.2 94.6 84.8 95.5 92.4 L96 95.8 89 95.8 L82.1 95.9 81.7 92.7 C81.3 89.6 81.3 89.6 81.1 93.2 C81 96.7 80.7 97 78 97 C76.3 97 75 96.5 75 95.9 C75 95.3 74.5 95.1 74 95.4 C72.1 96.4 60 97 59.4 96 M56.8 79.1 C55.1 77.7 54.8 76.7 55.4 74.2 C56.2 70.7 60.1 67 63.1 67 C64.1 67 65 66.5 65 66 C65 65.4 64.1 65 63 65 C59.9 65 59.1 62.1 60 54 C61 45.1 63 42 68.9 40.1 C71.2 39.3 72.7 38.4 72.2 38.1 C70.9 37.3 69.6 28.7 70.3 26.3 C70.7 25.3 72.5 23.4 74.4 22.1 C78.1 19.6 79.8 19.9 83.2 23.7 C85.5 26.2 85.7 35.7 83.5 37.1 C83 37.5 84.6 38.7 87.2 39.8 C91.5 41.7 92 42.2 93.5 47.6 C94.7 51.5 95 55.4 94.7 60 C94.2 66.5 94.3 66.6 97 67.7 C99 68.4 100.1 69.8 100.7 72.1 C101.6 75.5 100.5 80 98.8 80 C98.3 80 89.2 80.2 78.5 80.5 C60.7 80.9 58.8 80.8 56.8 79.1 "/>
  <path d="M22.8 95.1 C21.6 94.1 20.8 92.8 21.1 92.2 C21.3 91.6 22.9 92.4 24.7 94 C28.3 97.2 26.5 98.3 22.8 95.1 "/>
 </g>
</svg>